<?xml version="1.0" encoding="UTF-8"?>
<!DOCTYPE svg PUBLIC "-//W3C//DTD SVG 1.1//EN" "http://www.w3.org/Graphics/SVG/1.1/DTD/svg11.dtd">
<!-- Creator: CorelDRAW X7 -->
<svg xmlns="http://www.w3.org/2000/svg" xml:space="preserve" width="21.2708mm" height="42.9382mm" version="1.1" style="shape-rendering:geometricPrecision; text-rendering:geometricPrecision; image-rendering:optimizeQuality; fill-rule:evenodd; clip-rule:evenodd"
viewBox="0 0 766 1547"
 xmlns:xlink="http://www.w3.org/1999/xlink">
 <defs>
  <style type="text/css">
   <![CDATA[
    .fil0 {fill:#FF6633}
    .fil1 {fill:white}
   ]]>
  </style>
 </defs>
 <g id="Layer_x0020_1">
  <metadata id="CorelCorpID_0Corel-Layer"/>
  <path class="fil0" d="M766 383l0 264 0 90 -90 0 -586 0 -90 0 0 -90 0 -264c0,-106 43,-201 112,-271 70,-69 165,-112 271,-112 106,0 202,43 271,112 69,70 112,165 112,271zm-384 -2l-106 106 -67 -67 173 -172 174 174 -67 67 -107 -108zm294 2l0 264 -586 0 0 -264c0,-162 131,-293 293,-293 162,0 293,131 293,293z"/>
  <path class="fil0" d="M385 1166l105 -106 67 67 -172 172 -175 -175 67 -66 108 108zm-385 -2l0 -264 0 -90 90 0 586 0 90 0 0 90 0 264c0,105 -43,201 -112,271 -69,69 -165,112 -271,112 -106,0 -201,-43 -271,-112 -69,-70 -112,-166 -112,-271zm90 0l0 -264 586 0 0 264c0,162 -131,293 -293,293 -162,0 -293,-131 -293,-293z"/>
  <path class="fil1" d="M676 1164l0 -264 -586 0 0 264c0,162 131,293 293,293 162,0 293,-131 293,-293zm-291 2l105 -106 67 67 -172 172 -175 -175 67 -66 108 108z"/>
  <path class="fil1" d="M90 647l586 0 0 -264c0,-162 -131,-293 -293,-293 -162,0 -293,131 -293,293l0 264zm186 -160l-67 -67 173 -172 174 174 -67 67 -107 -108 -106 106z"/>
 </g>
</svg>
