<?xml version="1.0" encoding="UTF-8"?>
<!DOCTYPE svg PUBLIC "-//W3C//DTD SVG 1.1//EN" "http://www.w3.org/Graphics/SVG/1.1/DTD/svg11.dtd">
<!-- Creator: CorelDRAW X7 -->
<svg xmlns="http://www.w3.org/2000/svg" xml:space="preserve" width="20.9852mm" height="25.292mm" version="1.1" style="shape-rendering:geometricPrecision; text-rendering:geometricPrecision; image-rendering:optimizeQuality; fill-rule:evenodd; clip-rule:evenodd"
viewBox="0 0 721 869"
 xmlns:xlink="http://www.w3.org/1999/xlink">
 <defs>
  <style type="text/css">
   <![CDATA[
    .fil0 {fill:white}
    .fil1 {fill:#FF6633;fill-rule:nonzero}
   ]]>
  </style>
 </defs>
 <g id="Layer_x0020_1">
  <metadata id="CorelCorpID_0Corel-Layer"/>
  <path class="fil0" d="M81 360c0,163 170,285 279,395 110,-110 280,-232 280,-395 0,-77 -31,-147 -82,-197 -50,-51 -120,-82 -198,-82 -77,0 -147,31 -197,82 -51,50 -82,120 -82,197zm223 206c0,-33 27,-60 61,-60 33,0 60,27 60,60 0,33 -27,60 -60,60 -34,0 -61,-27 -61,-60zm0 -402l121 0 0 313 -121 0 0 -313zm54 476l2 0 3 0 -3 2 -2 -2z"/>
  <path class="fil1" d="M360 0c100,0 190,40 255,106 66,65 106,155 106,254 0,212 -226,375 -361,509 -137,-137 -360,-298 -360,-509 0,-99 40,-189 106,-254l0 0c65,-66 155,-106 254,-106zm-56 566c0,-33 27,-60 61,-60 33,0 60,27 60,60 0,33 -27,60 -60,60 -34,0 -61,-27 -61,-60zm0 -402l121 0 0 313 -121 0 0 -313zm336 196c0,-77 -31,-147 -82,-197 -50,-51 -120,-82 -198,-82 -77,0 -147,31 -197,82 -51,50 -82,120 -82,197 0,163 170,285 279,395 110,-110 280,-232 280,-395zm-282 280l2 0 3 0 -3 2 -2 -2z"/>
 </g>
</svg>
