<?xml version="1.0" encoding="UTF-8"?>
<!DOCTYPE svg PUBLIC "-//W3C//DTD SVG 1.1//EN" "http://www.w3.org/Graphics/SVG/1.1/DTD/svg11.dtd">
<!-- Creator: CorelDRAW X7 -->
<svg xmlns="http://www.w3.org/2000/svg" xml:space="preserve" width="27.9856mm" height="27.9856mm" version="1.1" style="shape-rendering:geometricPrecision; text-rendering:geometricPrecision; image-rendering:optimizeQuality; fill-rule:evenodd; clip-rule:evenodd"
viewBox="0 0 522 522"
 xmlns:xlink="http://www.w3.org/1999/xlink">
 <defs>
  <style type="text/css">
   <![CDATA[
    .fil1 {fill:#122B5F}
    .fil0 {fill:#143F95}
    .fil2 {fill:white}
   ]]>
  </style>
 </defs>
 <g id="Layer_x0020_1">
  <metadata id="CorelCorpID_0Corel-Layer"/>
  <circle class="fil0" cx="261" cy="261" r="261"/>
  <path class="fil1" d="M347 430l25 0 0 -157 -132 0c-4,0 -6,-2 -6,-5l0 -11c0,-4 2,-6 6,-6l12 0c-17,-7 -32,-16 -45,-27 -3,24 9,47 16,69 50,0 89,6 86,67 0,53 -4,83 -13,87 -15,7 -24,4 -27,-8 2,-37 1,-70 -5,-97 -6,-1 -16,-2 -29,-2 1,1 1,2 1,4l0 11c0,3 -2,6 -5,6l-45 0 0 58 9 0c3,0 5,2 5,5l0 7c3,2 6,6 6,10 0,6 -5,11 -11,11 -7,0 -12,-5 -12,-11l-3 0 -11 0 -3 0c0,6 -5,11 -11,11 -6,0 -11,-5 -11,-11 0,-4 2,-8 5,-10l0 -7c0,-3 3,-5 6,-5l9 0 0 -58 -35 0 -11 0 0 0 0 0 0 0 0 0 0 0 0 0 0 0 0 -1 0 0 0 0 0 0 0 0 0 0 0 0 -1 0 0 0 0 0 0 0 0 0 0 0 0 0 0 0 0 0 0 0 -1 0 0 0 0 0 0 0 0 0 0 0 0 0 0 0 0 0 0 0 0 0 0 0 0 0 0 0 -1 0 0 0 0 0 0 0 0 -1 0 0 0 0 0 0 0 0 0 0 0 0 0 0 0 0 0 0 0 0 0 0 0 0 -1 0 0 0 0 0 0 0 0 0 0 -1 0 0 0 0 0 0 0 0 0 0 0 0 0 0 0 0 0 0 0 0 0 0 0 0 0 0 0 0 0 0 0 0 0 -1 0 0 -1 0 0 0 0 0 0 0 0 0 0 0 0 0 0 0 0 0 0 0 0 0 0 0 0 0 0 0 0 -1 0 0 0 0 0 0 0 0 0 0 0 0 0 0 0 0 0 0 0 0 0 0 0 0 0 0 0 0 0 0 0 -1 0 0 0 0 0 0 0 0 0 0 0 0 0 0 0 -11 0 -172c0,-3 2,-6 5,-6l11 0c4,0 6,3 6,6l0 166 30 0c-11,-4 -18,-12 -22,-25 -11,-34 1,-160 58,-143 7,4 11,8 13,13 22,24 52,40 91,48 7,1 13,5 15,12 1,2 2,5 1,8l18 0 0 -5c0,-4 2,-6 5,-6l13 0 0 -33c-1,1 -2,1 -3,0l-6 -1 -4 15c-1,3 -4,5 -7,4l-10 -3c-3,0 -5,-3 -4,-6l30 -113c1,-2 4,-4 7,-3l10 2c3,1 5,4 4,7l-4 15 6 2c2,1 4,4 3,7l-9 34 3 0c3,0 6,2 6,5l0 68 12 0c3,0 6,2 6,6l0 5 10 0c3,0 6,2 6,6l0 10 0 1 0 167 0 11 0 0 0 0 0 0 0 1 0 0 0 0 0 0 0 0 0 0 0 0 0 0 0 0 0 0 0 0 0 0 0 0 0 0 0 1 0 0 0 0 0 0 0 0 0 0 0 0 0 0 0 0 0 0 0 0 0 0 0 0 0 0 0 0 0 0 -1 1 0 0 0 0 0 0 0 0 0 0 0 0 0 0 0 0 0 0 0 0 0 0 0 0 0 0 0 1 0 0 0 0 0 0 0 0 0 0 0 0 0 0 0 0 0 0 -1 0 0 0 0 0 0 0 0 0 0 0 0 1 0 0 0 0 0 0 0 0 0 0 -1 0 0 0 0 0 0 0 0 0 0 0 0 0 0 0 0 0 0 0 0 0 -1 0 0 1 0 0 0 0 0 0 0 0 0 0 0 0 0 0 -1 0 0 0 0 0 0 0 0 0 0 0 0 0 -1 0 -29 0 -31 0c-3,0 -5,-3 -5,-6l0 -11c0,-3 2,-5 5,-5zm-149 -266c-28,0 -51,-23 -51,-50 0,-28 23,-51 51,-51 28,0 50,23 50,51 0,27 -22,50 -50,50z"/>
  <path class="fil2" d="M339 422l25 0 0 -157 -132 0c-3,0 -6,-2 -6,-5l0 -11c0,-3 3,-6 6,-6l12 0c-17,-7 -32,-16 -45,-27 -3,24 10,47 16,70 50,-1 89,5 86,66 0,53 -4,83 -13,87 -15,7 -24,4 -27,-7 3,-38 1,-71 -5,-98 -6,-1 -15,-2 -29,-2 1,1 2,3 2,4l0 11c0,3 -3,6 -6,6l-45 0 0 58 9 0c3,0 5,2 5,5l0 7c3,2 6,6 6,10 0,6 -5,11 -11,11 -6,0 -11,-5 -11,-11l-4 0 -11 0 -3 0c0,6 -5,11 -11,11 -6,0 -11,-5 -11,-11 0,-4 2,-8 5,-10l0 -7c0,-3 3,-5 6,-5l9 0 0 -58 -34 0 -11 0 0 0 -1 0 0 0 0 0 0 0 0 0 0 0 0 0 0 0 0 0 0 0 0 0 0 0 0 0 -1 0 0 -1 0 0 0 0 0 0 0 0 0 0 0 0 0 0 0 0 0 0 -1 0 0 0 0 0 0 0 0 0 0 0 0 0 0 0 0 0 0 0 0 0 0 0 0 0 0 0 0 0 -1 0 0 0 0 0 0 0 0 0 0 -1 0 0 0 0 0 0 0 0 0 0 0 0 0 0 0 0 0 0 0 0 -1 0 0 0 0 0 0 0 0 0 0 0 0 -1 0 0 0 0 0 0 0 0 0 0 0 0 0 0 0 0 0 0 0 0 0 0 0 0 0 0 0 0 0 0 0 0 0 -1 0 0 0 0 0 0 -1 0 0 0 0 0 0 0 0 0 0 0 0 0 0 0 0 0 0 0 0 0 0 0 0 -1 0 0 0 0 0 0 0 0 0 0 0 0 0 0 0 0 0 0 0 0 0 0 0 0 0 0 0 -1 0 0 0 0 0 0 0 0 0 0 0 0 0 0 0 -11 0 -172c0,-3 3,-6 6,-6l11 0c3,0 5,3 5,6l0 167 30 0c-11,-5 -18,-13 -22,-26 -11,-34 1,-160 58,-143 7,4 11,8 13,13 22,24 52,40 92,48 6,1 12,5 15,12 1,3 1,5 0,8l18 0 0 -5c0,-3 2,-6 6,-6l12 0 0 -33c-1,1 -2,1 -3,1l-6 -2 -4 15c0,3 -3,5 -6,4l-11 -3c-3,0 -5,-3 -4,-6l30 -112c1,-3 4,-5 7,-4l10 2c3,1 5,4 4,7l-4 16 6 1c3,1 4,4 4,7l-9 34 2 0c3,0 6,2 6,5l0 68 12 0c3,0 6,3 6,6l0 5 11 0c3,0 5,3 5,6l0 10 0 1 0 167 0 11 0 0 0 1 0 0 0 0 0 0 0 0 0 0 0 0 0 0 0 0 0 0 0 0 0 0 0 0 0 0 0 1 0 0 0 0 0 0 0 0 0 0 0 0 0 0 0 0 0 0 0 0 0 0 0 0 0 0 0 0 0 0 0 1 0 0 0 0 0 0 0 0 0 0 -1 0 0 0 0 0 0 0 0 0 0 0 0 0 0 0 0 0 0 1 0 0 0 0 0 0 0 0 0 0 0 0 0 0 0 0 0 0 0 0 0 0 0 0 -1 0 0 0 0 0 0 1 0 0 0 0 0 0 0 0 0 0 0 0 0 0 0 0 -1 0 0 0 0 0 0 0 0 0 0 0 0 0 0 0 0 1 0 0 -1 0 0 0 0 0 0 0 0 0 0 0 0 0 0 0 0 0 -1 0 0 0 0 0 0 0 0 0 0 0 0 0 -30 0 -31 0c-3,0 -5,-3 -5,-6l0 -11c0,-3 2,-5 5,-5zm-149 -266c-28,0 -51,-23 -51,-50 0,-28 23,-51 51,-51 28,0 50,23 50,51 0,27 -22,50 -50,50z"/>
 </g>
</svg>
