<?xml version="1.0" encoding="UTF-8"?>
<!DOCTYPE svg PUBLIC "-//W3C//DTD SVG 1.1//EN" "http://www.w3.org/Graphics/SVG/1.1/DTD/svg11.dtd">
<!-- Creator: CorelDRAW X7 -->
<svg xmlns="http://www.w3.org/2000/svg" xml:space="preserve" width="27.9855mm" height="27.9856mm" version="1.1" style="shape-rendering:geometricPrecision; text-rendering:geometricPrecision; image-rendering:optimizeQuality; fill-rule:evenodd; clip-rule:evenodd"
viewBox="0 0 834 834"
 xmlns:xlink="http://www.w3.org/1999/xlink">
 <defs>
  <style type="text/css">
   <![CDATA[
    .fil3 {fill:none}
    .fil1 {fill:#C71B1B}
    .fil0 {fill:red}
    .fil2 {fill:white}
   ]]>
  </style>
   <clipPath id="id0">
    <path d="M417 0c230,0 417,187 417,417 0,230 -187,417 -417,417 -230,0 -417,-187 -417,-417 0,-230 187,-417 417,-417z"/>
   </clipPath>
 </defs>
 <g id="Layer_x0020_1">
  <metadata id="CorelCorpID_0Corel-Layer"/>
  <path class="fil0" d="M417 0c230,0 417,187 417,417 0,230 -187,417 -417,417 -230,0 -417,-187 -417,-417 0,-230 187,-417 417,-417z"/>
  <g style="clip-path:url(#id0)">
   <g id="_512394252320">
    <g>
     <circle class="fil1" transform="matrix(-0.210509 0.0250297 0.0250297 0.210509 665.395 180.52)" r="331"/>
     <path class="fil1" d="M765 373c9,2 19,-1 25,-8 6,-8 7,-18 3,-27 -5,-8 -13,-13 -23,-13 -58,-5 -105,-24 -140,-57 -5,-7 -15,-11 -24,-9 -9,2 -16,10 -19,19 -2,9 2,18 9,24 41,41 97,65 169,71z"/>
     <path class="fil1" d="M424 316c-8,5 -13,14 -13,23 1,10 7,18 16,21 9,4 19,2 25,-5 47,-35 94,-52 142,-51 9,1 19,-3 24,-10 6,-8 6,-18 2,-26 -5,-9 -14,-14 -23,-13 -58,-3 -116,17 -173,61z"/>
     <path class="fil1" d="M625 432c-3,-39 -18,-84 8,-120 16,-20 16,-37 -3,-54 -74,-40 -125,129 -120,178 4,32 23,49 61,52 39,0 57,-18 54,-56z"/>
     <path class="fil1" d="M619 435c-35,9 -94,26 -98,42 17,15 41,25 48,34 51,71 93,140 113,215 9,19 61,4 52,-29 -27,-95 -66,-192 -115,-262z"/>
     <path class="fil1" d="M599 495c-26,-25 -73,-65 -89,-59 -3,23 2,49 -2,59 -14,37 -21,56 -38,89 -20,39 -58,-11 -86,20 -11,19 -12,56 27,55 31,-1 80,-3 116,-37 41,-39 54,-81 72,-127z"/>
    </g>
    <g>
     <circle class="fil2" transform="matrix(-0.210509 0.0250297 0.0250297 0.210509 652.781 167.906)" r="331"/>
     <path class="fil2" d="M752 360c10,3 19,-1 25,-8 6,-7 7,-18 3,-26 -4,-9 -13,-14 -23,-14 -58,-5 -104,-24 -139,-57 -6,-7 -15,-10 -25,-8 -9,2 -16,9 -18,18 -2,9 1,19 8,25 41,41 97,64 169,70z"/>
     <path class="fil2" d="M411 304c-8,4 -13,13 -12,22 0,10 6,18 15,22 9,3 19,1 26,-6 47,-35 94,-52 141,-51 10,1 19,-2 25,-10 5,-8 5,-18 1,-26 -5,-8 -13,-13 -23,-13 -58,-3 -115,18 -173,62z"/>
     <path class="fil2" d="M612 420c-3,-40 -18,-85 9,-121 15,-19 16,-37 -4,-53 -73,-41 -124,129 -119,178 3,32 22,49 61,52 39,0 56,-19 53,-56z"/>
     <path class="fil2" d="M606 422c-35,9 -94,26 -98,42 17,16 42,25 48,34 51,72 93,141 113,215 10,20 62,5 52,-29 -26,-94 -65,-191 -115,-262z"/>
     <path class="fil2" d="M587 482c-27,-24 -73,-64 -89,-58 -4,22 2,48 -2,58 -15,38 -21,56 -38,89 -20,40 -59,-11 -86,20 -12,19 -13,56 26,55 32,-1 80,-3 116,-37 41,-38 55,-81 73,-127z"/>
    </g>
    <rect class="fil1" x="289" y="-12" width="84.1325" height="901.724"/>
    <rect class="fil2" x="276" y="-25" width="84.1325" height="901.724"/>
   </g>
  </g>
  <path class="fil3" d="M417 0c230,0 417,187 417,417 0,230 -187,417 -417,417 -230,0 -417,-187 -417,-417 0,-230 187,-417 417,-417z"/>
 </g>
</svg>
