<?xml version="1.0" encoding="UTF-8"?>
<!DOCTYPE svg PUBLIC "-//W3C//DTD SVG 1.1//EN" "http://www.w3.org/Graphics/SVG/1.1/DTD/svg11.dtd">
<!-- Creator: CorelDRAW X7 -->
<svg xmlns="http://www.w3.org/2000/svg" xml:space="preserve" width="27.9856mm" height="27.9856mm" version="1.1" style="shape-rendering:geometricPrecision; text-rendering:geometricPrecision; image-rendering:optimizeQuality; fill-rule:evenodd; clip-rule:evenodd"
viewBox="0 0 522 522"
 xmlns:xlink="http://www.w3.org/1999/xlink">
 <defs>
  <style type="text/css">
   <![CDATA[
    .fil1 {fill:#007DA7}
    .fil0 {fill:#0099CC}
    .fil2 {fill:white}
   ]]>
  </style>
 </defs>
 <g id="Layer_x0020_1">
  <metadata id="CorelCorpID_0Corel-Layer"/>
  <circle class="fil0" cx="261" cy="261" r="261"/>
  <path class="fil1" d="M129 269l281 0c8,0 16,2 23,5 7,3 14,7 20,13l5 5 0 1c3,4 6,9 8,14 3,7 4,15 4,23l0 0c0,8 -1,16 -4,23 -2,5 -5,9 -8,13l0 1 -5 6c-6,5 -13,10 -20,13 -7,3 -15,4 -23,4l-281 0c-8,0 -16,-1 -23,-4 -7,-3 -14,-8 -20,-13l-5 -6 0 -1c-3,-4 -6,-8 -8,-13 -3,-7 -4,-15 -4,-23l0 0c0,-8 1,-16 4,-23 2,-5 5,-10 8,-14l0 -1 5 -5c6,-6 13,-10 20,-13 7,-3 15,-5 23,-5zm171 -131l106 0c5,0 9,4 9,9l0 106c0,5 -4,10 -9,10l-106 0c-5,0 -9,-5 -9,-10l0 -106c0,-5 4,-9 9,-9zm-166 0l105 0c6,0 10,4 10,9l0 106c0,5 -4,10 -10,10l-105 0c-5,0 -10,-5 -10,-10l0 -106c0,-5 5,-9 10,-9zm9 93l30 -31 -30 -30 0 61zm44 -44l30 -30 -61 0 31 30zm43 -17l-30 30 30 31 0 -61zm-43 44l-31 30 61 0 -30 -30zm135 -57l31 30 30 -30 -61 0zm44 43l30 31 0 -61 -30 30zm17 44l-30 -30 -31 30 61 0zm-43 -44l-31 -30 0 61 31 -31zm-211 92c21,0 38,17 38,38 0,21 -17,38 -38,38 -21,0 -38,-17 -38,-38 0,-21 17,-38 38,-38zm142 0c22,0 39,17 39,38 0,21 -17,38 -39,38 -21,0 -38,-17 -38,-38 0,-21 17,-38 38,-38zm14 24c-3,-4 -8,-6 -14,-6 -5,0 -10,2 -13,6 -4,3 -6,8 -6,14 0,5 2,10 6,14 3,3 8,5 13,5 6,0 11,-2 14,-5 4,-4 6,-9 6,-14 0,-6 -2,-11 -6,-14l0 0zm125 -24c21,0 38,17 38,38 0,21 -17,38 -38,38 -21,0 -38,-17 -38,-38 0,-21 17,-38 38,-38zm14 24c-4,-4 -9,-6 -14,-6 -6,0 -11,2 -14,6 -4,3 -6,8 -6,14 0,5 2,10 6,14 3,3 8,5 14,5 5,0 10,-2 14,-5 3,-4 5,-9 5,-14 0,-6 -2,-11 -5,-14l0 0zm-281 0c-3,-4 -8,-6 -14,-6 -5,0 -10,2 -14,6 -3,3 -5,8 -5,14 0,5 2,10 5,14 4,3 9,5 14,5 6,0 11,-2 14,-5 4,-4 6,-9 6,-14 0,-6 -2,-11 -6,-14l0 0zm-14 -28l281 0c11,0 22,5 29,12l0 0c8,8 13,18 13,30l0 0c0,11 -5,22 -13,29l0 0c-7,8 -18,13 -29,13l-281 0c-11,0 -22,-5 -29,-13l0 0c-8,-7 -13,-18 -13,-29l0 0c0,-12 5,-22 13,-30l0 0c7,-7 18,-12 29,-12z"/>
  <path class="fil2" d="M121 261l281 0c8,0 16,2 23,5 7,3 14,8 20,13l5 6 0 0c3,4 6,9 8,14 3,7 4,15 4,23l0 0c0,8 -1,16 -4,23 -2,5 -5,9 -8,13l0 1 -5 6c-6,5 -13,10 -20,13 -7,3 -15,4 -23,4l-281 0c-8,0 -16,-1 -23,-4 -7,-3 -14,-8 -19,-13l-6 -6 0 -1c-3,-4 -6,-8 -8,-13 -3,-7 -4,-15 -4,-23l0 0c0,-8 1,-16 4,-23 2,-5 5,-10 8,-14l0 0 6 -6c5,-5 12,-10 19,-13 7,-3 15,-5 23,-5zm171 -131l106 0c5,0 9,4 9,10l0 105c0,5 -4,10 -9,10l-106 0c-5,0 -9,-5 -9,-10l0 -105c0,-6 4,-10 9,-10zm-166 0l106 0c5,0 9,4 9,10l0 105c0,5 -4,10 -9,10l-106 0c-5,0 -10,-5 -10,-10l0 -105c0,-6 5,-10 10,-10zm9 93l30 -31 -30 -30 0 61zm44 -44l30 -30 -61 0 31 30zm43 -17l-30 30 30 31 0 -61zm-43 44l-31 30 61 0 -30 -30zm135 -57l31 30 30 -30 -61 0zm44 43l30 31 0 -61 -30 30zm17 44l-30 -30 -31 30 61 0zm-43 -44l-31 -30 0 61 31 -31zm-211 92c21,0 39,17 39,38 0,21 -18,38 -39,38 -21,0 -38,-17 -38,-38 0,-21 17,-38 38,-38zm143 0c21,0 38,17 38,38 0,21 -17,38 -38,38 -22,0 -39,-17 -39,-38 0,-21 17,-38 39,-38zm13 24c-3,-3 -8,-6 -13,-6 -6,0 -11,3 -14,6 -4,4 -6,8 -6,14 0,5 2,10 6,14 3,3 8,5 14,5 5,0 10,-2 13,-5 4,-4 6,-9 6,-14 0,-6 -2,-10 -6,-14l0 0zm125 -24c21,0 38,17 38,38 0,21 -17,38 -38,38 -21,0 -38,-17 -38,-38 0,-21 17,-38 38,-38zm14 24c-4,-3 -9,-6 -14,-6 -6,0 -10,3 -14,6 -4,4 -6,8 -6,14 0,5 2,10 6,14 4,3 8,5 14,5 5,0 10,-2 14,-5 3,-4 5,-9 5,-14 0,-6 -2,-10 -5,-14l0 0zm-281 0c-3,-3 -8,-6 -14,-6 -5,0 -10,3 -13,6 -4,4 -6,8 -6,14 0,5 2,10 6,14 3,3 8,5 13,5 6,0 11,-2 14,-5 4,-4 6,-9 6,-14 0,-6 -2,-10 -6,-14l0 0zm-14 -28l281 0c11,0 22,5 29,12l0 0c8,8 13,18 13,30l0 0c0,11 -5,22 -13,29l0 0c-7,8 -18,13 -29,13l-281 0c-11,0 -22,-5 -29,-13l0 0c-8,-7 -13,-18 -13,-29l0 0c0,-12 5,-22 13,-30l0 0c7,-7 18,-12 29,-12z"/>
 </g>
</svg>
