<?xml version="1.0" encoding="UTF-8"?>
<!DOCTYPE svg PUBLIC "-//W3C//DTD SVG 1.1//EN" "http://www.w3.org/Graphics/SVG/1.1/DTD/svg11.dtd">
<!-- Creator: CorelDRAW X7 -->
<svg xmlns="http://www.w3.org/2000/svg" xml:space="preserve" width="27.9856mm" height="27.9856mm" version="1.1" style="shape-rendering:geometricPrecision; text-rendering:geometricPrecision; image-rendering:optimizeQuality; fill-rule:evenodd; clip-rule:evenodd"
viewBox="0 0 1152 1152"
 xmlns:xlink="http://www.w3.org/1999/xlink">
 <defs>
  <style type="text/css">
   <![CDATA[
    .fil0 {fill:red}
    .fil1 {fill:#C71B1B;fill-rule:nonzero}
    .fil2 {fill:white;fill-rule:nonzero}
   ]]>
  </style>
 </defs>
 <g id="Layer_x0020_1">
  <metadata id="CorelCorpID_0Corel-Layer"/>
  <circle class="fil0" cx="576" cy="576" r="576"/>
  <path class="fil1" d="M380 447l436 0 0 -71 -436 0 0 71zm-26 309l137 -28 -137 -28c-11,-2 -19,-14 -17,-25 2,-9 9,-15 17,-17l137 -28 -137 -28c-11,-2 -19,-13 -17,-25 2,-8 9,-15 17,-16l106 -22 -101 0c-12,0 -22,-9 -22,-21l0 -19c0,-1 0,-2 0,-3l0 -233c0,-12 5,-22 12,-29 8,-8 18,-12 29,-12l439 0c11,0 22,4 29,12 7,7 12,17 12,29l0 233c0,1 0,2 0,3l0 19c0,12 -10,21 -22,21l-101 0 106 22c12,2 19,13 17,25 -2,9 -9,15 -17,17l-137 27 137 28c12,3 19,14 17,25 -2,9 -9,15 -17,17l-137 28 137 28c12,4 16,13 17,25l0 14 0 118c0,11 -10,21 -21,21l-1 0c-5,26 -28,45 -55,45 -27,0 -50,-19 -55,-45l-257 0c-5,26 -28,45 -55,45 -27,0 -50,-19 -55,-45l-1 0c-11,0 -21,-10 -21,-21l0 -118 0 -23c2,-8 9,-15 17,-16zm26 -422l436 0 0 -70 -436 0 0 70zm218 318l-133 27 133 27 132 -27 -132 -27zm0 -97l-133 27 133 27 132 -27 -132 -27zm-121 219l241 0 -120 -25 -121 25z"/>
  <path class="fil2" d="M362 429l436 0 0 -71 -436 0 0 71zm-26 309l137 -28 -137 -28c-11,-2 -19,-14 -17,-25 2,-9 9,-15 17,-17l137 -28 -137 -28c-11,-2 -19,-13 -17,-25 2,-8 9,-15 17,-16l106 -22 -101 0c-12,0 -22,-9 -22,-21l0 -19c0,-1 0,-2 0,-3l0 -233c0,-12 5,-22 12,-29 7,-8 18,-12 29,-12l439 0c11,0 22,4 29,12 7,7 12,17 12,29l0 233c0,1 0,2 0,3l0 19c0,12 -10,21 -22,21l-101 0 106 22c12,2 19,13 17,25 -2,9 -9,15 -17,17l-137 27 137 28c12,3 19,14 17,25 -2,9 -9,15 -17,17l-137 28 137 28c12,4 16,13 17,25l0 14 0 118c0,11 -10,21 -21,21l-1 0c-5,26 -28,45 -55,45 -27,0 -50,-19 -55,-45l-257 0c-5,26 -28,45 -55,45 -27,0 -50,-19 -55,-45l-1 0c-11,0 -21,-10 -21,-21l0 -118 0 -23c2,-8 9,-15 17,-16zm26 -422l436 0 0 -70 -436 0 0 70zm218 318l-133 27 133 27 132 -27 -132 -27zm0 -97l-133 27 133 27 132 -27 -132 -27zm-121 219l241 0 -120 -25 -121 25z"/>
 </g>
</svg>
