<?xml version="1.0" encoding="UTF-8"?>
<!DOCTYPE svg PUBLIC "-//W3C//DTD SVG 1.1//EN" "http://www.w3.org/Graphics/SVG/1.1/DTD/svg11.dtd">
<!-- Creator: CorelDRAW X7 -->
<svg xmlns="http://www.w3.org/2000/svg" xml:space="preserve" width="27.9856mm" height="27.9856mm" version="1.1" style="shape-rendering:geometricPrecision; text-rendering:geometricPrecision; image-rendering:optimizeQuality; fill-rule:evenodd; clip-rule:evenodd"
viewBox="0 0 5882 5882"
 xmlns:xlink="http://www.w3.org/1999/xlink">
 <defs>
  <style type="text/css">
   <![CDATA[
    .fil1 {fill:none}
    .fil0 {fill:#009966}
    .fil2 {fill:#117856}
    .fil3 {fill:white}
   ]]>
  </style>
 </defs>
 <g id="Layer_x0020_1">
  <metadata id="CorelCorpID_0Corel-Layer"/>
  <circle class="fil0" cx="2941" cy="2941" r="2941"/>
  <path class="fil1" d="M3207 3858c39,-218 138,-405 296,-559 950,-758 671,-1664 8,-1917 -809,-309 -1634,262 -1217,1561 58,179 48,359 -31,541 -49,161 18,286 201,376 223,115 431,218 624,308 -380,-126 -640,-171 -779,-133 -275,86 -68,269 620,547 -462,-166 -774,-172 -934,-20"/>
  <path class="fil2" d="M1551 4241c72,68 179,85 269,42 41,-21 75,-52 99,-90l0 0 0 0c9,-14 16,-30 22,-46 14,-34 18,-61 14,-82 -4,-19 -16,-33 -35,-42 -74,-48 -152,-77 -233,-88 -41,-6 -80,-7 -117,-2 -109,8 -225,48 -347,117 136,70 245,134 328,191zm1870 -271c-12,69 -78,115 -148,103 -69,-13 -115,-79 -102,-148 22,-123 60,-237 116,-341 55,-105 127,-201 216,-287 3,-3 6,-6 10,-9l0 0c262,-209 422,-428 502,-637 60,-156 74,-306 53,-443 -21,-135 -76,-259 -159,-362 -90,-112 -211,-201 -354,-256 -225,-85 -448,-96 -638,-35 -101,33 -192,85 -269,158 -77,73 -140,166 -183,280 -93,244 -96,578 39,1000l0 0c34,104 48,209 42,315 -6,103 -30,205 -74,308 -12,44 -10,81 6,112 21,38 64,74 131,107l3 1 0 0c110,57 217,111 320,162 96,47 196,95 299,143 64,30 92,106 62,170 -29,63 -103,91 -167,63 -177,-58 -328,-98 -450,-119 -101,-17 -177,-21 -228,-11 98,78 301,180 609,305l4 1 0 0 4 2c66,26 98,101 71,166 -25,64 -97,96 -161,73l0 0c-219,-78 -399,-119 -540,-122 -120,-2 -208,23 -263,75 -51,48 -131,46 -180,-5 -49,-51 -47,-131 5,-180 71,-68 162,-112 273,-132l-7 -6c-215,-190 -184,-329 92,-417 4,-2 7,-3 10,-4 7,-1 13,-3 20,-4 -58,-44 -102,-93 -132,-148 -50,-94 -58,-198 -23,-312l0 0c1,-5 3,-9 5,-14 33,-76 52,-152 56,-228 5,-74 -5,-148 -30,-222l0 0 0 -1c-155,-482 -147,-875 -35,-1169 58,-151 142,-276 247,-375 105,-99 229,-171 366,-215 245,-78 528,-67 807,40 185,70 345,187 463,335 110,138 184,302 212,483 27,179 9,373 -67,571 -95,249 -280,504 -578,743 -67,67 -122,139 -164,219 -43,82 -73,171 -91,267zm1026 -200c-53,146 -191,244 -347,247 -146,2 -278,-81 -342,-210 1,-28 7,-55 20,-83l0 0 0 -1c15,-34 38,-68 70,-103l0 0c197,-254 505,-370 923,-347 -140,193 -248,359 -324,497zm-919 472c89,-141 258,-214 425,-177 423,121 706,407 849,860 -485,-165 -1337,-118 -1336,-488l0 0 0 -1c0,-36 8,-75 25,-119l0 0c10,-29 23,-54 37,-75l0 0zm-1564 -623l0 1c22,-18 42,-38 61,-59l1 -1 0 0c135,-154 172,-377 82,-570 -277,-512 -727,-795 -1351,-851 359,592 540,1746 1044,1575l0 0 4 -1c20,-8 41,-17 63,-29 5,-2 10,-5 14,-8l6 -4c9,-5 17,-10 25,-15l0 0c18,-12 34,-24 51,-38z"/>
  <path class="fil3" d="M1462 4152c72,68 179,85 269,42 41,-21 75,-52 99,-90l0 0 0 0c9,-14 16,-30 22,-46 14,-34 18,-61 14,-82 -4,-19 -16,-33 -35,-42 -74,-48 -152,-77 -233,-88 -41,-6 -80,-7 -117,-2 -109,8 -225,48 -347,117 136,70 245,134 328,191zm1870 -271c-12,69 -78,115 -148,103 -69,-13 -115,-79 -102,-148 22,-123 60,-237 116,-341 55,-105 128,-201 216,-287 3,-3 6,-6 10,-9l0 0c262,-209 422,-428 502,-637 60,-156 74,-306 53,-443 -20,-135 -76,-259 -159,-362 -90,-112 -211,-201 -354,-256 -225,-85 -448,-96 -638,-35 -101,33 -192,85 -269,158 -77,73 -140,166 -183,280 -93,244 -96,578 39,1000l0 0c34,104 48,209 42,315 -6,103 -30,205 -74,308 -12,44 -10,81 6,112 21,38 64,74 131,107l3 1 0 0c110,57 217,111 320,162 96,47 196,95 299,143 64,30 92,106 62,170 -29,63 -103,91 -167,63 -177,-58 -328,-98 -450,-119 -101,-17 -177,-21 -228,-11 98,78 301,180 609,305l4 1 0 0 4 2c66,26 98,101 71,166 -25,64 -97,96 -161,73l0 0c-219,-78 -399,-119 -540,-122 -120,-2 -208,23 -263,75 -51,48 -131,46 -180,-5 -49,-51 -46,-131 5,-180 71,-68 162,-112 273,-132l-7 -6c-215,-190 -184,-329 92,-417 4,-2 7,-3 10,-4 7,-1 13,-3 20,-4 -58,-44 -102,-93 -132,-148 -50,-94 -58,-198 -23,-312l0 0c1,-5 3,-9 5,-14 33,-76 52,-152 56,-227 5,-75 -5,-149 -30,-223l0 0 0 -1c-155,-482 -147,-875 -35,-1169 58,-151 142,-276 247,-375 105,-99 229,-171 366,-215 245,-78 528,-67 807,40 185,70 345,187 463,335 110,138 184,302 212,483 27,179 9,373 -67,571 -95,249 -280,504 -578,743 -67,67 -122,139 -164,219 -43,82 -73,171 -91,267zm1026 -200c-53,146 -191,244 -347,247 -146,2 -278,-81 -342,-210 1,-28 7,-55 20,-83l0 0 0 0c15,-34 38,-69 70,-104l0 0c197,-254 505,-370 923,-347 -140,193 -248,359 -324,497zm-919 472c89,-141 258,-214 425,-177 423,121 706,407 849,860 -485,-165 -1337,-118 -1336,-488l0 1 0 -2c0,-36 8,-75 25,-119l1 0c9,-29 22,-54 36,-75l0 0zm-1564 -623l0 1c22,-18 42,-38 61,-59l1 0 0 -1c135,-154 172,-377 82,-570 -277,-512 -727,-795 -1351,-851 359,592 540,1746 1044,1575l0 0 4 -1c20,-8 41,-17 63,-29 5,-2 10,-5 14,-8l6 -4c9,-5 17,-10 25,-15l1 0c17,-12 33,-24 50,-38z"/>
 </g>
</svg>
