<?xml version="1.0" encoding="UTF-8"?>
<!DOCTYPE svg PUBLIC "-//W3C//DTD SVG 1.1//EN" "http://www.w3.org/Graphics/SVG/1.1/DTD/svg11.dtd">
<!-- Creator: CorelDRAW X7 -->
<svg xmlns="http://www.w3.org/2000/svg" xml:space="preserve" width="15.3386mm" height="44.3654mm" version="1.1" style="shape-rendering:geometricPrecision; text-rendering:geometricPrecision; image-rendering:optimizeQuality; fill-rule:evenodd; clip-rule:evenodd"
viewBox="0 0 443 1280"
 xmlns:xlink="http://www.w3.org/1999/xlink">
 <defs>
  <style type="text/css">
   <![CDATA[
    .fil1 {fill:#FF6633}
    .fil2 {fill:white}
    .fil0 {fill:white;fill-rule:nonzero}
   ]]>
  </style>
 </defs>
 <g id="Layer_x0020_1">
  <metadata id="CorelCorpID_0Corel-Layer"/>
  <g id="_512314242560">
   <path class="fil0" d="M184 108c0,-20 16,-36 36,-36 20,0 36,16 36,36l0 1064c0,20 -16,36 -36,36 -20,0 -36,-16 -36,-36l0 -1064z"/>
   <path class="fil1" d="M112 108c0,-30 12,-57 32,-76l0 0c20,-20 46,-32 76,-32 30,0 57,12 77,32 19,19 31,46 31,76l0 1064c0,30 -12,57 -31,76 -20,20 -47,32 -77,32 -30,0 -56,-12 -76,-32l0 0c-20,-19 -32,-46 -32,-76l0 -1064zm72 0c0,-20 16,-36 36,-36 20,0 36,16 36,36l0 1064c0,20 -16,36 -36,36 -20,0 -36,-16 -36,-36l0 -1064z"/>
  </g>
  <g id="_512314241728">
   <path class="fil2" d="M327 742c27,-26 43,-64 43,-105 0,-41 -16,-78 -43,-105 -27,-27 -65,-44 -106,-44 -41,0 -78,17 -105,43 -27,27 -44,65 -44,106 0,41 17,79 44,105 27,27 64,44 105,44 42,0 79,-17 106,-43l0 -1z"/>
   <path class="fil1" d="M327 742c27,-26 43,-64 43,-105 0,-41 -16,-78 -43,-105 -27,-27 -65,-44 -106,-44 -41,0 -78,17 -105,43 -27,27 -44,65 -44,106 0,41 17,79 44,105 27,27 64,44 105,44 42,0 79,-17 106,-43l0 -1zm99 -21c-12,28 -28,52 -48,72l0 0 0 0 0 1 0 -1 0 0c-21,21 -45,37 -72,48 -27,11 -55,17 -85,17 -29,0 -58,-6 -84,-17 -28,-11 -52,-27 -72,-48 -20,-20 -37,-44 -48,-72 -11,-26 -17,-54 -17,-84 0,-30 6,-58 17,-84 11,-28 28,-52 48,-72l0 -1c20,-20 45,-36 72,-47 26,-11 55,-17 84,-17 30,0 58,6 85,17 27,11 52,27 72,48 20,20 36,44 48,72 11,26 17,54 17,84 0,30 -6,58 -17,84z"/>
  </g>
 </g>
</svg>
